<svg width="21" height="20" viewBox="0 0 21 20" fill="none" xmlns="http://www.w3.org/2000/svg">
<path d="M9.70834 12.4583L8.16667 14C7.84167 14.325 7.32501 14.325 6.99167 14.0083C6.90001 13.9167 6.80834 13.8333 6.71667 13.7417C5.85834 12.875 5.08334 11.9667 4.39167 11.0167C3.70834 10.0667 3.15834 9.11666 2.75834 8.175C2.36667 7.225 2.16667 6.31666 2.16667 5.45C2.16667 4.88333 2.26667 4.34166 2.46667 3.84166C2.66667 3.33333 2.98334 2.86666 3.42501 2.45C3.95834 1.925 4.54167 1.66666 5.15834 1.66666C5.39167 1.66666 5.62501 1.71666 5.83334 1.81666C6.05001 1.91666 6.24167 2.06666 6.39167 2.28333L8.32501 5.00833C8.47501 5.21666 8.58334 5.40833 8.65834 5.59166C8.73334 5.76666 8.77501 5.94166 8.77501 6.1C8.77501 6.3 8.71667 6.5 8.60001 6.69166C8.49167 6.88333 8.33334 7.08333 8.13334 7.28333L7.50001 7.94166C7.40834 8.03333 7.36667 8.14166 7.36667 8.275C7.36667 8.34166 7.37501 8.4 7.39167 8.46666C7.41667 8.53333 7.44167 8.58333 7.45834 8.63333C7.60834 8.90833 7.86667 9.26666 8.23334 9.7C8.60834 10.1333 9.00834 10.575 9.44167 11.0167C9.525 11.1 9.61667 11.1833 9.70001 11.2667C10.0333 11.5917 10.0417 12.125 9.70834 12.4583Z" fill="white"/>
<path d="M18.8083 15.275C18.8083 15.5083 18.7667 15.75 18.6833 15.9833C18.6583 16.05 18.6333 16.1167 18.6 16.1833C18.4583 16.4833 18.275 16.7667 18.0333 17.0333C17.625 17.4833 17.175 17.8083 16.6667 18.0167C16.6583 18.0167 16.65 18.025 16.6417 18.025C16.15 18.225 15.6167 18.3333 15.0417 18.3333C14.1917 18.3333 13.2833 18.1333 12.325 17.725C11.3667 17.3167 10.4083 16.7667 9.45833 16.075C9.13333 15.8333 8.80833 15.5917 8.5 15.3333L11.225 12.6083C11.4583 12.7833 11.6667 12.9167 11.8417 13.0083C11.8833 13.025 11.9333 13.05 11.9917 13.075C12.0583 13.1 12.125 13.1083 12.2 13.1083C12.3417 13.1083 12.45 13.0583 12.5417 12.9667L13.175 12.3417C13.3833 12.1333 13.5833 11.975 13.775 11.875C13.9667 11.7583 14.1583 11.7 14.3667 11.7C14.525 11.7 14.6917 11.7333 14.875 11.8083C15.0583 11.8833 15.25 11.9917 15.4583 12.1333L18.2167 14.0917C18.4333 14.2417 18.5833 14.4167 18.675 14.625C18.7583 14.8333 18.8083 15.0417 18.8083 15.275Z" fill="white"/>
</svg>
