<svg width="21" height="20" viewBox="0 0 21 20" fill="none" xmlns="http://www.w3.org/2000/svg">
<path d="M14.6667 2.91667H6.33334C3.83334 2.91667 2.16667 4.16667 2.16667 7.08333V12.9167C2.16667 15.8333 3.83334 17.0833 6.33334 17.0833H14.6667C17.1667 17.0833 18.8333 15.8333 18.8333 12.9167V7.08333C18.8333 4.16667 17.1667 2.91667 14.6667 2.91667ZM15.0583 7.99167L12.45 10.075C11.9 10.5167 11.2 10.7333 10.5 10.7333C9.8 10.7333 9.09167 10.5167 8.55 10.075L5.94167 7.99167C5.67501 7.775 5.63334 7.375 5.84167 7.10833C6.05834 6.84167 6.45001 6.79167 6.71667 7.00833L9.32501 9.09167C9.95834 9.6 11.0333 9.6 11.6667 9.09167L14.275 7.00833C14.5417 6.79167 14.9417 6.83333 15.15 7.10833C15.3667 7.375 15.325 7.775 15.0583 7.99167Z" fill="#292D32"/>
<path d="M14.6667 2.91667H6.33334C3.83334 2.91667 2.16667 4.16667 2.16667 7.08333V12.9167C2.16667 15.8333 3.83334 17.0833 6.33334 17.0833H14.6667C17.1667 17.0833 18.8333 15.8333 18.8333 12.9167V7.08333C18.8333 4.16667 17.1667 2.91667 14.6667 2.91667ZM15.0583 7.99167L12.45 10.075C11.9 10.5167 11.2 10.7333 10.5 10.7333C9.8 10.7333 9.09167 10.5167 8.55 10.075L5.94167 7.99167C5.67501 7.775 5.63334 7.375 5.84167 7.10833C6.05834 6.84167 6.45001 6.79167 6.71667 7.00833L9.32501 9.09167C9.95834 9.6 11.0333 9.6 11.6667 9.09167L14.275 7.00833C14.5417 6.79167 14.9417 6.83333 15.15 7.10833C15.3667 7.375 15.325 7.775 15.0583 7.99167Z" fill="white"/>
</svg>
